<mxfile host="app.diagrams.net" agent="Mozilla/5.0 (Windows NT 10.0; Win64; x64) AppleWebKit/537.36 (KHTML, like Gecko) Chrome/127.0.0.0 Safari/537.36" version="25.0.3">
  <diagram name="Page-1" id="bK1WuiaBESBK6joY3FuV">
    <mxGraphModel dx="1034" dy="446" grid="1" gridSize="10" guides="1" tooltips="1" connect="1" arrows="1" fold="1" page="1" pageScale="1" pageWidth="827" pageHeight="1169" math="0" shadow="0">
      <root>
        <mxCell id="0" />
        <mxCell id="1" parent="0" />
        <mxCell id="1EyitOkwVyox39VN3DA6-1" value="" style="swimlane;startSize=0;" vertex="1" parent="1">
          <mxGeometry x="230" y="120" width="430" height="420" as="geometry" />
        </mxCell>
        <mxCell id="1EyitOkwVyox39VN3DA6-3" value="" style="ellipse;whiteSpace=wrap;html=1;" vertex="1" parent="1EyitOkwVyox39VN3DA6-1">
          <mxGeometry x="140" y="40" width="120" height="80" as="geometry" />
        </mxCell>
        <mxCell id="1EyitOkwVyox39VN3DA6-2" value="Actor" style="shape=umlActor;verticalLabelPosition=bottom;verticalAlign=top;html=1;outlineConnect=0;" vertex="1" parent="1">
          <mxGeometry x="140" y="170" width="30" height="60" as="geometry" />
        </mxCell>
      </root>
    </mxGraphModel>
  </diagram>
</mxfile>
